<?xml version="1.0" standalone="no"?>
<!DOCTYPE svg PUBLIC "-//W3C//DTD SVG 20010904//EN"
 "http://www.w3.org/TR/2001/REC-SVG-20010904/DTD/svg10.dtd">
<svg version="1.0" xmlns="http://www.w3.org/2000/svg"
 width="512.000000pt" height="512.000000pt" viewBox="0 0 512.000000 512.000000"
 preserveAspectRatio="xMidYMid meet">

<g transform="translate(0.000000,512.000000) scale(0.100000,-0.100000)"
fill="#000000" stroke="none">
<path d="M1488 4230 c-273 -47 -494 -245 -580 -520 l-23 -75 0 -1075 0 -1075
23 -75 c78 -248 254 -424 502 -502 l75 -23 1075 0 1075 0 75 23 c249 78 424
253 502 502 l23 75 0 1075 0 1075 -23 75 c-77 246 -247 418 -497 502 l-70 23
-1055 1 c-580 1 -1076 -2 -1102 -6z m2128 -161 c216 -39 414 -237 453 -453 15
-82 15 -2030 0 -2112 -39 -216 -237 -414 -453 -453 -82 -15 -2030 -15 -2112 0
-216 39 -414 237 -453 453 -15 82 -15 2030 0 2112 18 99 81 217 159 294 75 75
194 141 285 158 73 14 2045 15 2121 1z"/>
<path d="M2203 3458 c-27 -13 -47 -60 -39 -90 3 -13 179 -196 391 -408 l385
-385 -400 -400 c-439 -440 -429 -427 -371 -486 33 -33 50 -35 89 -15 15 8 217
205 450 438 413 415 422 424 422 463 0 39 -9 48 -412 453 -227 227 -425 420
-440 428 -31 16 -45 17 -75 2z"/>
</g>
</svg>
