<svg width="256" height="199" viewBox="0 0 256 199" fill="none" xmlns="http://www.w3.org/2000/svg">
<path d="M46.5392 198.011V184.84C46.5392 179.791 43.4658 176.498 38.1973 176.498C35.563 176.498 32.7091 177.376 30.7334 180.23C29.1967 177.815 27.0015 176.498 23.7086 176.498C21.5134 176.498 19.3181 177.156 17.5619 179.571V176.937H12.9519V198.011H17.5619V186.376C17.5619 182.645 19.5376 180.888 22.611 180.888C25.6843 180.888 27.221 182.864 27.221 186.376V198.011H31.831V186.376C31.831 182.645 34.0263 180.888 36.8801 180.888C39.9535 180.888 41.4901 182.864 41.4901 186.376V198.011H46.5392ZM114.811 176.937H107.348V170.571H102.738V176.937H98.5666V181.108H102.738V190.767C102.738 195.597 104.713 198.45 109.982 198.45C111.958 198.45 114.153 197.792 115.689 196.914L114.372 192.962C113.055 193.84 111.519 194.06 110.421 194.06C108.226 194.06 107.348 192.743 107.348 190.547V181.108H114.811V176.937ZM153.887 176.498C151.252 176.498 149.496 177.815 148.399 179.571V176.937H143.789V198.011H148.399V186.157C148.399 182.645 149.935 180.669 152.789 180.669C153.667 180.669 154.765 180.888 155.643 181.108L156.96 176.717C156.082 176.498 154.765 176.498 153.887 176.498ZM94.8346 178.693C92.6394 177.156 89.566 176.498 86.2732 176.498C81.0046 176.498 77.4922 179.132 77.4922 183.303C77.4922 186.816 80.1265 188.791 84.7365 189.45L86.9317 189.669C89.3465 190.108 90.6637 190.767 90.6637 191.865C90.6637 193.401 88.9075 194.499 85.8341 194.499C82.7608 194.499 80.346 193.401 78.8093 192.304L76.6141 195.816C79.0289 197.572 82.3217 198.45 85.6146 198.45C91.7613 198.45 95.2737 195.597 95.2737 191.645C95.2737 187.913 92.4199 185.937 88.0294 185.279L85.8341 185.059C83.8584 184.84 82.3217 184.401 82.3217 183.084C82.3217 181.547 83.8584 180.669 86.2732 180.669C88.9075 180.669 91.5418 181.766 92.8589 182.425L94.8346 178.693ZM217.329 176.498C214.695 176.498 212.939 177.815 211.841 179.571V176.937H207.231V198.011H211.841V186.157C211.841 182.645 213.378 180.669 216.232 180.669C217.11 180.669 218.208 180.888 219.086 181.108L220.403 176.717C219.525 176.498 218.208 176.498 217.329 176.498ZM158.497 187.474C158.497 193.84 162.887 198.45 169.693 198.45C172.766 198.45 174.961 197.792 177.156 196.036L174.961 192.304C173.205 193.621 171.449 194.279 169.473 194.279C165.741 194.279 163.107 191.645 163.107 187.474C163.107 183.523 165.741 180.888 169.473 180.669C171.449 180.669 173.205 181.327 174.961 182.645L177.156 178.913C174.961 177.156 172.766 176.498 169.693 176.498C162.887 176.498 158.497 181.108 158.497 187.474ZM201.085 187.474V176.937H196.475V179.571C194.938 177.595 192.743 176.498 189.889 176.498C183.962 176.498 179.352 181.108 179.352 187.474C179.352 193.84 183.962 198.45 189.889 198.45C192.962 198.45 195.157 197.353 196.475 195.377V198.011H201.085V187.474ZM184.181 187.474C184.181 183.742 186.596 180.669 190.547 180.669C194.279 180.669 196.914 183.523 196.914 187.474C196.914 191.206 194.279 194.279 190.547 194.279C186.596 194.06 184.181 191.206 184.181 187.474ZM129.081 176.498C122.934 176.498 118.543 180.888 118.543 187.474C118.543 194.06 122.934 198.45 129.3 198.45C132.373 198.45 135.447 197.572 137.861 195.597L135.666 192.304C133.91 193.621 131.715 194.499 129.52 194.499C126.666 194.499 123.812 193.182 123.153 189.45H138.74V187.694C138.959 180.888 135.008 176.498 129.081 176.498ZM129.081 180.449C131.934 180.449 133.91 182.205 134.349 185.498H123.373C123.812 182.645 125.788 180.449 129.081 180.449ZM243.453 187.474V168.595H238.843V179.571C237.306 177.595 235.111 176.498 232.257 176.498C226.33 176.498 221.72 181.108 221.72 187.474C221.72 193.84 226.33 198.45 232.257 198.45C235.33 198.45 237.526 197.353 238.843 195.377V198.011H243.453V187.474ZM226.549 187.474C226.549 183.742 228.964 180.669 232.916 180.669C236.648 180.669 239.282 183.523 239.282 187.474C239.282 191.206 236.648 194.279 232.916 194.279C228.964 194.06 226.549 191.206 226.549 187.474ZM72.4431 187.474V176.937H67.8331V179.571C66.2964 177.595 64.1012 176.498 61.2474 176.498C55.3202 176.498 50.7102 181.108 50.7102 187.474C50.7102 193.84 55.3202 198.45 61.2474 198.45C64.3207 198.45 66.5159 197.353 67.8331 195.377V198.011H72.4431V187.474ZM55.3202 187.474C55.3202 183.742 57.735 180.669 61.6864 180.669C65.4183 180.669 68.0526 183.523 68.0526 187.474C68.0526 191.206 65.4183 194.279 61.6864 194.279C57.735 194.06 55.3202 191.206 55.3202 187.474Z" fill="black"/>
<path d="M162.448 16.9034H93.2981V141.154H162.448V16.9034Z" fill="#FF5F00"/>
<path d="M97.6885 79.0289C97.6885 53.7836 109.543 31.392 127.763 16.9034C114.372 6.36622 97.469 0 79.0289 0C35.3435 0 0 35.3435 0 79.0289C0 122.714 35.3435 158.058 79.0289 158.058C97.469 158.058 114.372 151.692 127.763 141.154C109.543 126.885 97.6885 104.274 97.6885 79.0289Z" fill="#EB001B"/>
<path d="M255.746 79.0289C255.746 122.714 220.403 158.058 176.717 158.058C158.277 158.058 141.374 151.692 127.983 141.154C146.423 126.666 158.058 104.274 158.058 79.0289C158.058 53.7836 146.203 31.392 127.983 16.9034C141.374 6.36622 158.277 0 176.717 0C220.403 0 255.746 35.563 255.746 79.0289Z" fill="#F79E1B"/>
</svg>
