<svg width="126" height="149" viewBox="0 0 126 149" fill="none" xmlns="http://www.w3.org/2000/svg">
<path d="M91.7159 38.8672C87.2404 33.7537 79.1504 31.5615 68.8012 31.5615H38.7642C36.6468 31.5615 34.8475 33.1052 34.516 35.1983L22.0093 114.711C21.7606 116.278 22.9717 117.699 24.5571 117.699H43.1007L47.7579 88.0877L47.6136 89.015C47.9451 86.9219 49.731 85.3782 51.8457 85.3782H60.6577C77.9687 85.3782 91.5234 78.3299 95.4829 57.9406C95.6005 57.3376 95.7021 56.7507 95.7904 56.1772C95.2904 55.9118 95.2904 55.9118 95.7904 56.1772C96.9694 48.6411 95.7823 43.5116 91.7159 38.8672Z" fill="#27346A"/>
<path d="M54.8534 53.4623C55.348 53.2265 55.8988 53.0952 56.4763 53.0952H80.0246C82.8131 53.0952 85.4144 53.2774 87.7912 53.6607C88.4729 53.7705 89.1333 53.8965 89.7749 54.0412C90.4166 54.1833 91.0395 54.3441 91.6437 54.5209C91.9458 54.6094 92.2426 54.7005 92.534 54.797C93.7023 55.1882 94.7905 55.6438 95.7904 56.1772C96.9694 48.6384 95.7823 43.5116 91.7159 38.8672C87.2378 33.7537 79.1504 31.5615 68.8012 31.5615H38.7615C36.6468 31.5615 34.8475 33.1052 34.516 35.1983L22.0093 114.708C21.7606 116.278 22.9717 117.696 24.5545 117.696H43.1007L52.7628 56.2763C52.9606 55.0167 53.768 53.9849 54.8534 53.4623Z" fill="#27346A"/>
<path d="M95.4828 57.9406C91.5233 78.3272 77.9686 85.3782 60.6575 85.3782H51.843C49.7282 85.3782 47.9423 86.9219 47.6135 89.0149L41.8199 125.833C41.6034 127.205 42.6621 128.448 44.047 128.448H59.679C61.5291 128.448 63.1038 127.097 63.3926 125.267L63.5449 124.468L66.4912 105.751L66.681 104.717C66.9697 102.887 68.5444 101.536 70.3945 101.536H72.7338C87.8766 101.536 99.7337 95.3692 103.199 77.5339C104.645 70.0809 103.896 63.858 100.071 59.4869C98.9102 58.163 97.4692 57.0696 95.7903 56.1771C95.6994 56.7533 95.6004 57.3376 95.4828 57.9406Z" fill="#2790C3"/>
<path d="M91.6464 54.521C91.0422 54.3441 90.4192 54.1833 89.7776 54.0412C89.1359 53.8992 88.4729 53.7733 87.7938 53.6634C85.4144 53.2775 82.8157 53.0952 80.0246 53.0952H56.4789C55.8988 53.0952 55.348 53.2265 54.8561 53.4651C53.768 53.9876 52.9632 55.0168 52.7654 56.279L47.7606 88.0877L47.6162 89.015C47.9451 86.9219 49.731 85.3783 51.8457 85.3783H60.6603C77.9713 85.3783 91.5261 78.3299 95.4856 57.9406C95.6032 57.3376 95.7021 56.7534 95.793 56.1772C94.7904 55.6466 93.705 55.1883 92.5367 54.7997C92.2452 54.7032 91.9485 54.6094 91.6464 54.521Z" fill="#1F264F"/>
</svg>
