<svg width="290" height="93" viewBox="0 0 290 93" fill="none" xmlns="http://www.w3.org/2000/svg">
<g clip-path="url(#clip0)">
<path d="M125.667 91.6583H102.175L116.868 1.63184H140.359L125.667 91.6583Z" fill="#00579F"/>
<path d="M210.827 3.83278C206.193 2.01123 198.844 0 189.757 0C166.557 0 150.221 12.2583 150.121 29.7839C149.928 42.7143 161.817 49.8962 170.709 54.2076C179.798 58.6132 182.888 61.4887 182.888 65.4157C182.795 71.4468 175.543 74.2269 168.78 74.2269C159.401 74.2269 154.375 72.7936 146.738 69.4382L143.645 67.9998L140.357 88.2087C145.867 90.696 156.018 92.9033 166.557 93C191.207 93 207.255 80.9314 207.445 62.255C207.538 52.0067 201.26 44.154 187.726 37.7372C179.509 33.618 174.477 30.8405 174.477 26.6258C174.574 22.7943 178.733 18.8699 188.008 18.8699C195.645 18.6777 201.257 20.4967 205.507 22.317L207.632 23.2729L210.827 3.83278V3.83278Z" fill="#00579F"/>
<path d="M242.05 59.7651C243.985 54.5932 251.429 34.5765 251.429 34.5765C251.331 34.7687 253.36 29.3091 254.52 25.9575L256.162 33.7147C256.162 33.7147 260.61 55.2641 261.576 59.7651C257.905 59.7651 246.69 59.7651 242.05 59.7651ZM271.048 1.63184H252.877C247.273 1.63184 243.016 3.25864 240.598 9.10137L205.704 91.657H230.353C230.353 91.657 234.411 80.5457 235.284 78.1526C237.988 78.1526 261.967 78.1526 265.446 78.1526C266.12 81.3132 268.249 91.657 268.249 91.657H290L271.048 1.63184V1.63184Z" fill="#00579F"/>
<path d="M82.5527 1.63184L59.5463 63.0213L57.0323 50.5708C52.7789 36.2045 39.4393 20.5959 24.553 12.8349L45.6261 91.5628H70.4682L107.394 1.63184H82.5527V1.63184Z" fill="#00579F"/>
<path d="M38.1831 1.63184H0.386672L0 3.45085C29.4835 10.9217 49.0099 28.9297 57.0324 50.5746L48.8159 9.19938C47.4632 3.44957 43.3062 1.8215 38.1831 1.63184Z" fill="#FAA61A"/>
</g>
<defs>
<clipPath id="clip0">
<rect width="290" height="93" fill="white"/>
</clipPath>
</defs>
</svg>
