<svg width="64" height="64" viewBox="0 0 64 64" fill="none" xmlns="http://www.w3.org/2000/svg">
<path d="M42.6668 58.6671V48.3471C42.7669 47.0756 42.5951 45.7973 42.1629 44.5973C41.7307 43.3972 41.048 42.3029 40.1602 41.3872C48.5335 40.4538 57.3335 37.2805 57.3335 22.7205C57.3328 18.9974 55.9007 15.417 53.3335 12.7205C54.5491 9.46317 54.4632 5.86275 53.0935 2.66715C53.0935 2.66715 49.9468 1.73382 42.6668 6.61382C36.5549 4.95734 30.1121 4.95734 24.0002 6.61382C16.7202 1.73382 13.5735 2.66715 13.5735 2.66715C12.2038 5.86275 12.1179 9.46317 13.3335 12.7205C10.7472 15.437 9.31356 19.0497 9.3335 22.8005C9.3335 37.2538 18.1335 40.4272 26.5068 41.4672C25.6295 42.3737 24.9529 43.4549 24.521 44.6403C24.0891 45.8256 23.9117 47.0887 24.0002 48.3471V58.6671M24.0002 50.6671C10.6668 54.6671 10.6668 44.0005 5.3335 42.6672L24.0002 50.6671Z" stroke="white" stroke-width="5" stroke-linecap="round" stroke-linejoin="round"/>
</svg>
