<svg width="64" height="64" viewBox="0 0 64 64" fill="none" xmlns="http://www.w3.org/2000/svg">
<path d="M42.6665 21.333C46.91 21.333 50.9796 23.0187 53.9802 26.0193C56.9808 29.0199 58.6665 33.0895 58.6665 37.333V55.9997H47.9998V37.333C47.9998 35.9185 47.4379 34.562 46.4377 33.5618C45.4375 32.5616 44.081 31.9997 42.6665 31.9997C41.252 31.9997 39.8955 32.5616 38.8953 33.5618C37.8951 34.562 37.3332 35.9185 37.3332 37.333V55.9997H26.6665V37.333C26.6665 33.0895 28.3522 29.0199 31.3528 26.0193C34.3534 23.0187 38.423 21.333 42.6665 21.333V21.333Z" stroke="white" stroke-width="5" stroke-linecap="round" stroke-linejoin="round"/>
<path d="M16.0002 24H5.3335V56H16.0002V24Z" stroke="white" stroke-width="5" stroke-linecap="round" stroke-linejoin="round"/>
<path d="M10.6668 15.9997C13.6123 15.9997 16.0002 13.6119 16.0002 10.6663C16.0002 7.72082 13.6123 5.33301 10.6668 5.33301C7.72131 5.33301 5.3335 7.72082 5.3335 10.6663C5.3335 13.6119 7.72131 15.9997 10.6668 15.9997Z" stroke="white" stroke-width="5" stroke-linecap="round" stroke-linejoin="round"/>
</svg>
